<mxfile host="www.draw.io" modified="2020-01-07T03:00:30.919Z" agent="Mozilla/5.0 (Macintosh; Intel Mac OS X 10_14_5) AppleWebKit/537.36 (KHTML, like Gecko) Chrome/79.0.3945.88 Safari/537.36" etag="I9C9TXfM3uAkHGsa2vho" version="12.4.8" type="github">
  <diagram id="AHbCEerTlKpvjVQgfVZD" name="Page-1">
    <mxGraphModel dx="1042" dy="695" grid="1" gridSize="10" guides="1" tooltips="1" connect="1" arrows="1" fold="1" page="1" pageScale="1" pageWidth="827" pageHeight="1169" math="0" shadow="0">
      <root>
        <mxCell id="0"/>
        <mxCell id="1" parent="0"/>
        <mxCell id="eP0P-MiQ1UnPu2ceCvQb-42" value="" style="rounded=0;whiteSpace=wrap;html=1;strokeColor=#82b366;strokeWidth=1;fillColor=#d5e8d4;" vertex="1" parent="1">
          <mxGeometry x="665" y="464" width="445" height="586" as="geometry"/>
        </mxCell>
        <mxCell id="eP0P-MiQ1UnPu2ceCvQb-41" value="" style="rounded=0;whiteSpace=wrap;html=1;strokeColor=#36393d;strokeWidth=1;fillColor=#cce5ff;" vertex="1" parent="1">
          <mxGeometry x="7" y="464" width="658" height="587" as="geometry"/>
        </mxCell>
        <mxCell id="mJArkg921WcpEoAyN8Te-1" value="" style="rounded=0;whiteSpace=wrap;html=1;" parent="1" vertex="1">
          <mxGeometry x="107" y="50" width="190" height="170" as="geometry"/>
        </mxCell>
        <mxCell id="mJArkg921WcpEoAyN8Te-2" value="&lt;font style=&quot;font-size: 16px&quot;&gt;注册&lt;br&gt;线程&lt;/font&gt;" style="rounded=0;whiteSpace=wrap;html=1;" parent="1" vertex="1">
          <mxGeometry x="220" y="88.75" width="60" height="92.5" as="geometry"/>
        </mxCell>
        <mxCell id="mJArkg921WcpEoAyN8Te-3" value="&lt;font style=&quot;font-size: 20px&quot;&gt;业务实例&lt;/font&gt;" style="text;html=1;align=center;verticalAlign=middle;resizable=0;points=[];autosize=1;" parent="1" vertex="1">
          <mxGeometry x="107" y="125" width="100" height="20" as="geometry"/>
        </mxCell>
        <mxCell id="mJArkg921WcpEoAyN8Te-14" style="edgeStyle=orthogonalEdgeStyle;rounded=0;orthogonalLoop=1;jettySize=auto;html=1;exitX=0.5;exitY=1;exitDx=0;exitDy=0;entryX=0.5;entryY=0;entryDx=0;entryDy=0;strokeColor=#000000;strokeWidth=2;" parent="1" source="mJArkg921WcpEoAyN8Te-4" target="mJArkg921WcpEoAyN8Te-13" edge="1">
          <mxGeometry relative="1" as="geometry"/>
        </mxCell>
        <mxCell id="mJArkg921WcpEoAyN8Te-4" value="" style="rounded=0;whiteSpace=wrap;html=1;" parent="1" vertex="1">
          <mxGeometry x="420" y="50" width="190" height="170" as="geometry"/>
        </mxCell>
        <mxCell id="mJArkg921WcpEoAyN8Te-5" value="" style="endArrow=classic;html=1;strokeColor=#009900;strokeWidth=2;" parent="1" edge="1">
          <mxGeometry width="50" height="50" relative="1" as="geometry">
            <mxPoint x="280" y="102" as="sourcePoint"/>
            <mxPoint x="431" y="102" as="targetPoint"/>
          </mxGeometry>
        </mxCell>
        <mxCell id="mJArkg921WcpEoAyN8Te-8" value="注册" style="text;html=1;align=center;verticalAlign=middle;resizable=0;points=[];labelBackgroundColor=#ffffff;" parent="mJArkg921WcpEoAyN8Te-5" vertex="1" connectable="0">
          <mxGeometry x="-0.1383" y="4" relative="1" as="geometry">
            <mxPoint x="11.01" y="-7.42" as="offset"/>
          </mxGeometry>
        </mxCell>
        <mxCell id="mJArkg921WcpEoAyN8Te-6" value="" style="endArrow=classic;html=1;exitX=1;exitY=0.25;exitDx=0;exitDy=0;entryX=0.033;entryY=0.878;entryDx=0;entryDy=0;entryPerimeter=0;strokeColor=#FF0000;strokeWidth=2;" parent="1" target="mJArkg921WcpEoAyN8Te-20" edge="1">
          <mxGeometry width="50" height="50" relative="1" as="geometry">
            <mxPoint x="280" y="170.29000000000002" as="sourcePoint"/>
            <mxPoint x="416.96000000000004" y="170.00000000000006" as="targetPoint"/>
          </mxGeometry>
        </mxCell>
        <mxCell id="mJArkg921WcpEoAyN8Te-7" value="" style="endArrow=classic;html=1;exitX=1;exitY=0.25;exitDx=0;exitDy=0;entryX=0.033;entryY=0.392;entryDx=0;entryDy=0;entryPerimeter=0;strokeColor=#009900;strokeWidth=2;" parent="1" target="mJArkg921WcpEoAyN8Te-20" edge="1">
          <mxGeometry width="50" height="50" relative="1" as="geometry">
            <mxPoint x="280" y="125.29000000000002" as="sourcePoint"/>
            <mxPoint x="416.96000000000004" y="125.00000000000006" as="targetPoint"/>
          </mxGeometry>
        </mxCell>
        <mxCell id="mJArkg921WcpEoAyN8Te-10" value="注册" style="text;html=1;align=center;verticalAlign=middle;resizable=0;points=[];labelBackgroundColor=#ffffff;" parent="1" vertex="1" connectable="0">
          <mxGeometry x="337.001398132654" y="122.995082260858" as="geometry">
            <mxPoint x="13.01" y="-8.42" as="offset"/>
          </mxGeometry>
        </mxCell>
        <mxCell id="mJArkg921WcpEoAyN8Te-11" value="。。。" style="text;html=1;align=center;verticalAlign=middle;resizable=0;points=[];labelBackgroundColor=#ffffff;" parent="1" vertex="1" connectable="0">
          <mxGeometry x="337.001398132654" y="144.995082260858" as="geometry">
            <mxPoint x="13.01" y="-8.42" as="offset"/>
          </mxGeometry>
        </mxCell>
        <mxCell id="mJArkg921WcpEoAyN8Te-12" value="注销" style="text;html=1;align=center;verticalAlign=middle;resizable=0;points=[];labelBackgroundColor=#ffffff;" parent="1" vertex="1" connectable="0">
          <mxGeometry x="344.001398132654" y="164.995082260858" as="geometry">
            <mxPoint x="5.01" y="-5.42" as="offset"/>
          </mxGeometry>
        </mxCell>
        <mxCell id="mJArkg921WcpEoAyN8Te-13" value="DB" style="shape=cylinder;whiteSpace=wrap;html=1;boundedLbl=1;backgroundOutline=1;" parent="1" vertex="1">
          <mxGeometry x="472.5" y="290" width="85" height="80" as="geometry"/>
        </mxCell>
        <mxCell id="mJArkg921WcpEoAyN8Te-16" value="&lt;font style=&quot;font-size: 16px&quot;&gt;后台&lt;br&gt;线程&lt;br&gt;&lt;/font&gt;" style="rounded=0;whiteSpace=wrap;html=1;" parent="1" vertex="1">
          <mxGeometry x="540" y="88.75" width="60" height="92.5" as="geometry"/>
        </mxCell>
        <mxCell id="mJArkg921WcpEoAyN8Te-18" value="&lt;font style=&quot;font-size: 20px&quot;&gt;调度中心&lt;/font&gt;" style="text;html=1;align=center;verticalAlign=middle;resizable=0;points=[];autosize=1;" parent="1" vertex="1">
          <mxGeometry x="457.5" y="61" width="100" height="20" as="geometry"/>
        </mxCell>
        <mxCell id="mJArkg921WcpEoAyN8Te-19" value="&lt;font style=&quot;font-size: 16px&quot;&gt;client&lt;/font&gt;" style="text;html=1;align=center;verticalAlign=middle;resizable=0;points=[];autosize=1;" parent="1" vertex="1">
          <mxGeometry x="229" y="186" width="47" height="19" as="geometry"/>
        </mxCell>
        <mxCell id="mJArkg921WcpEoAyN8Te-20" value="&lt;font style=&quot;font-size: 16px&quot;&gt;注册&lt;br&gt;处理&lt;br&gt;线程&lt;br&gt;&lt;/font&gt;" style="rounded=0;whiteSpace=wrap;html=1;" parent="1" vertex="1">
          <mxGeometry x="432" y="88.75" width="60" height="92.5" as="geometry"/>
        </mxCell>
        <mxCell id="mJArkg921WcpEoAyN8Te-21" value="&lt;font style=&quot;font-size: 16px&quot;&gt;Daemon&lt;/font&gt;" style="text;html=1;align=center;verticalAlign=middle;resizable=0;points=[];autosize=1;" parent="1" vertex="1">
          <mxGeometry x="535.5" y="186" width="70" height="19" as="geometry"/>
        </mxCell>
        <mxCell id="eP0P-MiQ1UnPu2ceCvQb-62" style="edgeStyle=orthogonalEdgeStyle;rounded=0;orthogonalLoop=1;jettySize=auto;html=1;exitX=0;exitY=0.7;exitDx=0;exitDy=0;entryX=1;entryY=0.75;entryDx=0;entryDy=0;strokeColor=#000000;strokeWidth=1;" edge="1" parent="1" source="eP0P-MiQ1UnPu2ceCvQb-2" target="eP0P-MiQ1UnPu2ceCvQb-3">
          <mxGeometry relative="1" as="geometry"/>
        </mxCell>
        <mxCell id="eP0P-MiQ1UnPu2ceCvQb-63" value="1.1 获取5S内的任务" style="text;html=1;align=center;verticalAlign=middle;resizable=0;points=[];labelBackgroundColor=#ffffff;" vertex="1" connectable="0" parent="eP0P-MiQ1UnPu2ceCvQb-62">
          <mxGeometry x="-0.0588" y="4" relative="1" as="geometry">
            <mxPoint x="-1.88" y="5.65" as="offset"/>
          </mxGeometry>
        </mxCell>
        <mxCell id="eP0P-MiQ1UnPu2ceCvQb-2" value="&lt;font style=&quot;font-size: 16px&quot;&gt;DB&lt;/font&gt;" style="shape=cylinder;whiteSpace=wrap;html=1;boundedLbl=1;backgroundOutline=1;" vertex="1" parent="1">
          <mxGeometry x="283.5" y="916" width="83" height="100" as="geometry"/>
        </mxCell>
        <mxCell id="eP0P-MiQ1UnPu2ceCvQb-64" style="edgeStyle=orthogonalEdgeStyle;rounded=0;orthogonalLoop=1;jettySize=auto;html=1;exitX=0.5;exitY=0;exitDx=0;exitDy=0;entryX=0.5;entryY=1;entryDx=0;entryDy=0;entryPerimeter=0;strokeColor=#000000;strokeWidth=1;" edge="1" parent="1" source="eP0P-MiQ1UnPu2ceCvQb-3" target="eP0P-MiQ1UnPu2ceCvQb-5">
          <mxGeometry relative="1" as="geometry"/>
        </mxCell>
        <mxCell id="eP0P-MiQ1UnPu2ceCvQb-65" value="1.2 放入对应时间轮" style="text;html=1;align=center;verticalAlign=middle;resizable=0;points=[];labelBackgroundColor=#ffffff;" vertex="1" connectable="0" parent="eP0P-MiQ1UnPu2ceCvQb-64">
          <mxGeometry x="-0.3514" y="2" relative="1" as="geometry">
            <mxPoint x="2.56" y="-40.88" as="offset"/>
          </mxGeometry>
        </mxCell>
        <mxCell id="eP0P-MiQ1UnPu2ceCvQb-66" style="edgeStyle=orthogonalEdgeStyle;rounded=0;orthogonalLoop=1;jettySize=auto;html=1;exitX=1;exitY=0.25;exitDx=0;exitDy=0;entryX=0.022;entryY=0.398;entryDx=0;entryDy=0;entryPerimeter=0;strokeColor=#000000;strokeWidth=1;" edge="1" parent="1" source="eP0P-MiQ1UnPu2ceCvQb-3" target="eP0P-MiQ1UnPu2ceCvQb-2">
          <mxGeometry relative="1" as="geometry"/>
        </mxCell>
        <mxCell id="eP0P-MiQ1UnPu2ceCvQb-67" value="1.3 更新任务下次时间" style="text;html=1;align=center;verticalAlign=middle;resizable=0;points=[];labelBackgroundColor=#ffffff;" vertex="1" connectable="0" parent="eP0P-MiQ1UnPu2ceCvQb-66">
          <mxGeometry x="-0.2874" y="-1" relative="1" as="geometry">
            <mxPoint x="18.65" y="-11.76" as="offset"/>
          </mxGeometry>
        </mxCell>
        <mxCell id="eP0P-MiQ1UnPu2ceCvQb-3" value="&lt;font style=&quot;font-size: 16px&quot;&gt;调度线程&lt;/font&gt;" style="rounded=0;whiteSpace=wrap;html=1;strokeColor=#0000FF;" vertex="1" parent="1">
          <mxGeometry x="28.5" y="941" width="120" height="60" as="geometry"/>
        </mxCell>
        <mxCell id="eP0P-MiQ1UnPu2ceCvQb-68" style="edgeStyle=orthogonalEdgeStyle;rounded=0;orthogonalLoop=1;jettySize=auto;html=1;entryX=0;entryY=0.5;entryDx=0;entryDy=0;strokeColor=#000000;strokeWidth=1;" edge="1" parent="1" source="eP0P-MiQ1UnPu2ceCvQb-5" target="eP0P-MiQ1UnPu2ceCvQb-18">
          <mxGeometry relative="1" as="geometry"/>
        </mxCell>
        <mxCell id="eP0P-MiQ1UnPu2ceCvQb-69" value="2.1 获取&lt;br&gt;当前秒的&lt;br&gt;任务列表" style="text;html=1;align=center;verticalAlign=middle;resizable=0;points=[];labelBackgroundColor=#ffffff;" vertex="1" connectable="0" parent="eP0P-MiQ1UnPu2ceCvQb-68">
          <mxGeometry x="0.0099" y="-2" relative="1" as="geometry">
            <mxPoint x="-4.12" y="21.76" as="offset"/>
          </mxGeometry>
        </mxCell>
        <mxCell id="eP0P-MiQ1UnPu2ceCvQb-5" value="" style="verticalLabelPosition=bottom;verticalAlign=top;html=1;shape=mxgraph.flowchart.summing_function;" vertex="1" parent="1">
          <mxGeometry x="18" y="514" width="141" height="141" as="geometry"/>
        </mxCell>
        <mxCell id="eP0P-MiQ1UnPu2ceCvQb-6" value="" style="endArrow=none;html=1;strokeColor=#000000;strokeWidth=1;exitX=0.145;exitY=0.855;exitDx=0;exitDy=0;exitPerimeter=0;entryX=0.855;entryY=0.145;entryDx=0;entryDy=0;entryPerimeter=0;" edge="1" parent="1" source="eP0P-MiQ1UnPu2ceCvQb-5" target="eP0P-MiQ1UnPu2ceCvQb-5">
          <mxGeometry width="50" height="50" relative="1" as="geometry">
            <mxPoint x="117" y="876" as="sourcePoint"/>
            <mxPoint x="167" y="826" as="targetPoint"/>
          </mxGeometry>
        </mxCell>
        <mxCell id="eP0P-MiQ1UnPu2ceCvQb-7" value="" style="endArrow=none;html=1;strokeColor=#000000;strokeWidth=1;exitX=0.145;exitY=0.145;exitDx=0;exitDy=0;exitPerimeter=0;entryX=0.855;entryY=0.855;entryDx=0;entryDy=0;entryPerimeter=0;" edge="1" parent="1" source="eP0P-MiQ1UnPu2ceCvQb-5" target="eP0P-MiQ1UnPu2ceCvQb-5">
          <mxGeometry width="50" height="50" relative="1" as="geometry">
            <mxPoint x="48.444999999999936" y="644.5550000000001" as="sourcePoint"/>
            <mxPoint x="148.55500000000006" y="544.4449999999999" as="targetPoint"/>
          </mxGeometry>
        </mxCell>
        <mxCell id="eP0P-MiQ1UnPu2ceCvQb-8" value="&lt;font style=&quot;font-size: 16px&quot;&gt;0&lt;/font&gt;" style="text;html=1;align=center;verticalAlign=middle;resizable=0;points=[];autosize=1;" vertex="1" parent="1">
          <mxGeometry x="93" y="535" width="19" height="19" as="geometry"/>
        </mxCell>
        <mxCell id="eP0P-MiQ1UnPu2ceCvQb-9" value="&lt;font style=&quot;font-size: 16px&quot;&gt;1&lt;/font&gt;" style="text;html=1;align=center;verticalAlign=middle;resizable=0;points=[];autosize=1;" vertex="1" parent="1">
          <mxGeometry x="120" y="560" width="19" height="19" as="geometry"/>
        </mxCell>
        <mxCell id="eP0P-MiQ1UnPu2ceCvQb-10" value="&lt;font style=&quot;font-size: 16px&quot;&gt;2&lt;/font&gt;" style="text;html=1;align=center;verticalAlign=middle;resizable=0;points=[];autosize=1;" vertex="1" parent="1">
          <mxGeometry x="120" y="595" width="19" height="19" as="geometry"/>
        </mxCell>
        <mxCell id="eP0P-MiQ1UnPu2ceCvQb-11" value="&lt;font style=&quot;font-size: 16px&quot;&gt;3&lt;/font&gt;" style="text;html=1;align=center;verticalAlign=middle;resizable=0;points=[];autosize=1;" vertex="1" parent="1">
          <mxGeometry x="98" y="619" width="19" height="19" as="geometry"/>
        </mxCell>
        <mxCell id="eP0P-MiQ1UnPu2ceCvQb-12" value="&lt;font style=&quot;font-size: 16px&quot;&gt;4&lt;/font&gt;" style="text;html=1;align=center;verticalAlign=middle;resizable=0;points=[];autosize=1;" vertex="1" parent="1">
          <mxGeometry x="62.5" y="623" width="19" height="19" as="geometry"/>
        </mxCell>
        <mxCell id="eP0P-MiQ1UnPu2ceCvQb-13" value="&lt;font style=&quot;font-size: 16px&quot;&gt;5&lt;/font&gt;" style="text;html=1;align=center;verticalAlign=middle;resizable=0;points=[];autosize=1;" vertex="1" parent="1">
          <mxGeometry x="30" y="595" width="19" height="19" as="geometry"/>
        </mxCell>
        <mxCell id="eP0P-MiQ1UnPu2ceCvQb-14" value="&lt;span style=&quot;font-size: 16px&quot;&gt;...&lt;/span&gt;" style="text;html=1;align=center;verticalAlign=middle;resizable=0;points=[];autosize=1;" vertex="1" parent="1">
          <mxGeometry x="28" y="560" width="23" height="19" as="geometry"/>
        </mxCell>
        <mxCell id="eP0P-MiQ1UnPu2ceCvQb-15" value="&lt;font style=&quot;font-size: 16px&quot;&gt;59&lt;/font&gt;" style="text;html=1;align=center;verticalAlign=middle;resizable=0;points=[];autosize=1;" vertex="1" parent="1">
          <mxGeometry x="55" y="535" width="28" height="19" as="geometry"/>
        </mxCell>
        <mxCell id="eP0P-MiQ1UnPu2ceCvQb-17" value="&lt;span style=&quot;font-size: 16px&quot;&gt;时间轮&lt;/span&gt;" style="text;html=1;align=center;verticalAlign=middle;resizable=0;points=[];autosize=1;" vertex="1" parent="1">
          <mxGeometry x="59.5" y="664" width="58" height="19" as="geometry"/>
        </mxCell>
        <mxCell id="eP0P-MiQ1UnPu2ceCvQb-70" style="edgeStyle=orthogonalEdgeStyle;rounded=0;orthogonalLoop=1;jettySize=auto;html=1;exitX=1;exitY=0.5;exitDx=0;exitDy=0;entryX=0;entryY=0.5;entryDx=0;entryDy=0;strokeColor=#000000;strokeWidth=1;" edge="1" parent="1" source="eP0P-MiQ1UnPu2ceCvQb-18" target="eP0P-MiQ1UnPu2ceCvQb-20">
          <mxGeometry relative="1" as="geometry"/>
        </mxCell>
        <mxCell id="eP0P-MiQ1UnPu2ceCvQb-71" value="2.2 放入&lt;br&gt;调度线程池" style="text;html=1;align=center;verticalAlign=middle;resizable=0;points=[];labelBackgroundColor=#ffffff;" vertex="1" connectable="0" parent="eP0P-MiQ1UnPu2ceCvQb-70">
          <mxGeometry x="-0.1489" y="2" relative="1" as="geometry">
            <mxPoint x="3.94" y="22.26" as="offset"/>
          </mxGeometry>
        </mxCell>
        <mxCell id="eP0P-MiQ1UnPu2ceCvQb-18" value="&lt;font style=&quot;font-size: 16px&quot;&gt;时间轮线程&lt;/font&gt;" style="rounded=0;whiteSpace=wrap;html=1;strokeColor=#0000FF;" vertex="1" parent="1">
          <mxGeometry x="227" y="554.5" width="120" height="60" as="geometry"/>
        </mxCell>
        <mxCell id="eP0P-MiQ1UnPu2ceCvQb-72" style="edgeStyle=orthogonalEdgeStyle;rounded=0;orthogonalLoop=1;jettySize=auto;html=1;exitX=1;exitY=0.25;exitDx=0;exitDy=0;entryX=0;entryY=0.5;entryDx=0;entryDy=0;strokeColor=#000000;strokeWidth=1;" edge="1" parent="1" source="eP0P-MiQ1UnPu2ceCvQb-20" target="eP0P-MiQ1UnPu2ceCvQb-22">
          <mxGeometry relative="1" as="geometry"/>
        </mxCell>
        <mxCell id="eP0P-MiQ1UnPu2ceCvQb-73" style="edgeStyle=orthogonalEdgeStyle;rounded=0;orthogonalLoop=1;jettySize=auto;html=1;exitX=1;exitY=0.75;exitDx=0;exitDy=0;entryX=0;entryY=0.5;entryDx=0;entryDy=0;strokeColor=#000000;strokeWidth=1;" edge="1" parent="1" source="eP0P-MiQ1UnPu2ceCvQb-20" target="eP0P-MiQ1UnPu2ceCvQb-43">
          <mxGeometry relative="1" as="geometry"/>
        </mxCell>
        <mxCell id="eP0P-MiQ1UnPu2ceCvQb-20" value="&lt;font style=&quot;font-size: 16px&quot;&gt;Fast/slow线程池&lt;/font&gt;" style="rounded=0;whiteSpace=wrap;html=1;strokeColor=#000000;" vertex="1" parent="1">
          <mxGeometry x="430.5" y="483.25" width="70" height="202.5" as="geometry"/>
        </mxCell>
        <mxCell id="eP0P-MiQ1UnPu2ceCvQb-74" style="edgeStyle=orthogonalEdgeStyle;rounded=0;orthogonalLoop=1;jettySize=auto;html=1;exitX=1;exitY=0.5;exitDx=0;exitDy=0;entryX=0;entryY=0.5;entryDx=0;entryDy=0;strokeColor=#000000;strokeWidth=1;" edge="1" parent="1" source="eP0P-MiQ1UnPu2ceCvQb-22" target="eP0P-MiQ1UnPu2ceCvQb-25">
          <mxGeometry relative="1" as="geometry"/>
        </mxCell>
        <mxCell id="eP0P-MiQ1UnPu2ceCvQb-117" style="edgeStyle=orthogonalEdgeStyle;rounded=0;orthogonalLoop=1;jettySize=auto;html=1;exitX=1;exitY=0.5;exitDx=0;exitDy=0;strokeColor=#000000;strokeWidth=1;" edge="1" parent="1" source="eP0P-MiQ1UnPu2ceCvQb-22" target="eP0P-MiQ1UnPu2ceCvQb-2">
          <mxGeometry relative="1" as="geometry">
            <Array as="points">
              <mxPoint x="650" y="534"/>
              <mxPoint x="650" y="740"/>
              <mxPoint x="326" y="740"/>
            </Array>
          </mxGeometry>
        </mxCell>
        <mxCell id="eP0P-MiQ1UnPu2ceCvQb-22" value="&lt;font style=&quot;font-size: 16px&quot;&gt;Worker&lt;/font&gt;" style="rounded=0;whiteSpace=wrap;html=1;strokeColor=#0000FF;" vertex="1" parent="1">
          <mxGeometry x="552" y="504" width="61" height="60" as="geometry"/>
        </mxCell>
        <mxCell id="eP0P-MiQ1UnPu2ceCvQb-77" style="edgeStyle=orthogonalEdgeStyle;rounded=0;orthogonalLoop=1;jettySize=auto;html=1;exitX=0.25;exitY=1;exitDx=0;exitDy=0;entryX=1;entryY=0.5;entryDx=0;entryDy=0;strokeColor=#000000;strokeWidth=1;" edge="1" parent="1" source="eP0P-MiQ1UnPu2ceCvQb-25" target="eP0P-MiQ1UnPu2ceCvQb-35">
          <mxGeometry relative="1" as="geometry"/>
        </mxCell>
        <mxCell id="eP0P-MiQ1UnPu2ceCvQb-78" value="4 放入队列" style="text;html=1;align=center;verticalAlign=middle;resizable=0;points=[];labelBackgroundColor=#ffffff;" vertex="1" connectable="0" parent="eP0P-MiQ1UnPu2ceCvQb-77">
          <mxGeometry x="-0.1579" y="-1" relative="1" as="geometry">
            <mxPoint x="32.65" y="4.18" as="offset"/>
          </mxGeometry>
        </mxCell>
        <mxCell id="eP0P-MiQ1UnPu2ceCvQb-25" value="&lt;span style=&quot;font-size: 16px&quot;&gt;任务接收线程&lt;br&gt;&lt;/span&gt;" style="rounded=0;whiteSpace=wrap;html=1;strokeColor=#0000FF;" vertex="1" parent="1">
          <mxGeometry x="752" y="503.63" width="291" height="59.75" as="geometry"/>
        </mxCell>
        <mxCell id="eP0P-MiQ1UnPu2ceCvQb-87" style="edgeStyle=orthogonalEdgeStyle;rounded=0;orthogonalLoop=1;jettySize=auto;html=1;exitX=0.5;exitY=1;exitDx=0;exitDy=0;entryX=1;entryY=0.5;entryDx=0;entryDy=0;strokeColor=#000000;strokeWidth=1;" edge="1" parent="1" source="eP0P-MiQ1UnPu2ceCvQb-39" target="eP0P-MiQ1UnPu2ceCvQb-55">
          <mxGeometry relative="1" as="geometry">
            <Array as="points">
              <mxPoint x="816" y="810"/>
              <mxPoint x="897" y="810"/>
            </Array>
          </mxGeometry>
        </mxCell>
        <mxCell id="eP0P-MiQ1UnPu2ceCvQb-39" value="&lt;span style=&quot;font-size: 16px&quot;&gt;任务&lt;br&gt;处理&lt;br&gt;线程&lt;br&gt;&lt;/span&gt;" style="rounded=0;whiteSpace=wrap;html=1;strokeColor=#0000FF;" vertex="1" parent="1">
          <mxGeometry x="787.5" y="711" width="57.5" height="70" as="geometry"/>
        </mxCell>
        <mxCell id="eP0P-MiQ1UnPu2ceCvQb-114" style="edgeStyle=orthogonalEdgeStyle;rounded=0;orthogonalLoop=1;jettySize=auto;html=1;exitX=0;exitY=0.5;exitDx=0;exitDy=0;entryX=1;entryY=0.5;entryDx=0;entryDy=0;strokeColor=#000000;strokeWidth=1;" edge="1" parent="1" source="eP0P-MiQ1UnPu2ceCvQb-40" target="eP0P-MiQ1UnPu2ceCvQb-2">
          <mxGeometry relative="1" as="geometry"/>
        </mxCell>
        <mxCell id="eP0P-MiQ1UnPu2ceCvQb-115" value="7 更新调度结果" style="text;html=1;align=center;verticalAlign=middle;resizable=0;points=[];labelBackgroundColor=#ffffff;" vertex="1" connectable="0" parent="eP0P-MiQ1UnPu2ceCvQb-114">
          <mxGeometry x="0.1316" y="-5" relative="1" as="geometry">
            <mxPoint x="8.530000000000001" y="-6.59" as="offset"/>
          </mxGeometry>
        </mxCell>
        <mxCell id="eP0P-MiQ1UnPu2ceCvQb-40" value="&lt;font style=&quot;font-size: 16px&quot;&gt;回调服务&lt;/font&gt;" style="rounded=0;whiteSpace=wrap;html=1;strokeColor=#0000FF;" vertex="1" parent="1">
          <mxGeometry x="470" y="937" width="120" height="60" as="geometry"/>
        </mxCell>
        <mxCell id="eP0P-MiQ1UnPu2ceCvQb-75" style="edgeStyle=orthogonalEdgeStyle;rounded=0;orthogonalLoop=1;jettySize=auto;html=1;exitX=1;exitY=0.5;exitDx=0;exitDy=0;entryX=0;entryY=0.5;entryDx=0;entryDy=0;strokeColor=#000000;strokeWidth=1;" edge="1" parent="1" source="eP0P-MiQ1UnPu2ceCvQb-43" target="eP0P-MiQ1UnPu2ceCvQb-25">
          <mxGeometry relative="1" as="geometry">
            <Array as="points">
              <mxPoint x="682" y="635"/>
              <mxPoint x="682" y="534"/>
            </Array>
          </mxGeometry>
        </mxCell>
        <mxCell id="eP0P-MiQ1UnPu2ceCvQb-76" value="3.1 调度" style="text;html=1;align=center;verticalAlign=middle;resizable=0;points=[];labelBackgroundColor=#ffffff;" vertex="1" connectable="0" parent="eP0P-MiQ1UnPu2ceCvQb-75">
          <mxGeometry x="0.5882" y="1" relative="1" as="geometry">
            <mxPoint x="-15.06" y="-12.65" as="offset"/>
          </mxGeometry>
        </mxCell>
        <mxCell id="eP0P-MiQ1UnPu2ceCvQb-120" style="edgeStyle=orthogonalEdgeStyle;rounded=0;orthogonalLoop=1;jettySize=auto;html=1;exitX=1;exitY=0.5;exitDx=0;exitDy=0;entryX=0.5;entryY=0;entryDx=0;entryDy=0;strokeColor=#000000;strokeWidth=1;" edge="1" parent="1" source="eP0P-MiQ1UnPu2ceCvQb-43" target="eP0P-MiQ1UnPu2ceCvQb-2">
          <mxGeometry relative="1" as="geometry">
            <Array as="points">
              <mxPoint x="630" y="635"/>
              <mxPoint x="630" y="740"/>
              <mxPoint x="326" y="740"/>
            </Array>
          </mxGeometry>
        </mxCell>
        <mxCell id="eP0P-MiQ1UnPu2ceCvQb-121" value="3.2 写入调度记录" style="text;html=1;align=center;verticalAlign=middle;resizable=0;points=[];labelBackgroundColor=#ffffff;" vertex="1" connectable="0" parent="eP0P-MiQ1UnPu2ceCvQb-120">
          <mxGeometry x="-0.2008" y="-1" relative="1" as="geometry">
            <mxPoint x="-31.47" y="-8.53" as="offset"/>
          </mxGeometry>
        </mxCell>
        <mxCell id="eP0P-MiQ1UnPu2ceCvQb-43" value="&lt;font style=&quot;font-size: 16px&quot;&gt;Worker&lt;/font&gt;" style="rounded=0;whiteSpace=wrap;html=1;strokeColor=#0000FF;" vertex="1" parent="1">
          <mxGeometry x="552" y="605.5" width="61" height="60" as="geometry"/>
        </mxCell>
        <mxCell id="eP0P-MiQ1UnPu2ceCvQb-53" value="" style="group" vertex="1" connectable="0" parent="1">
          <mxGeometry x="780.13" y="610.75" width="74.13" height="51.50999999999999" as="geometry"/>
        </mxCell>
        <mxCell id="eP0P-MiQ1UnPu2ceCvQb-35" value="" style="rounded=0;whiteSpace=wrap;html=1;strokeColor=#000000;strokeWidth=1;rotation=-90;" vertex="1" parent="eP0P-MiQ1UnPu2ceCvQb-53">
          <mxGeometry y="10.889999999999986" width="74.13" height="31.37" as="geometry"/>
        </mxCell>
        <mxCell id="eP0P-MiQ1UnPu2ceCvQb-37" value="" style="ellipse;whiteSpace=wrap;html=1;aspect=fixed;strokeColor=#000000;strokeWidth=1;rotation=-90;" vertex="1" parent="eP0P-MiQ1UnPu2ceCvQb-53">
          <mxGeometry x="24.870000000000005" y="29.50999999999999" width="22" height="22" as="geometry"/>
        </mxCell>
        <mxCell id="eP0P-MiQ1UnPu2ceCvQb-38" value="" style="ellipse;whiteSpace=wrap;html=1;aspect=fixed;strokeColor=#000000;strokeWidth=1;rotation=-90;" vertex="1" parent="eP0P-MiQ1UnPu2ceCvQb-53">
          <mxGeometry x="24.870000000000005" width="22" height="22" as="geometry"/>
        </mxCell>
        <mxCell id="eP0P-MiQ1UnPu2ceCvQb-60" value="&lt;span style=&quot;font-size: 16px&quot;&gt;任务队列&lt;/span&gt;" style="text;html=1;align=center;verticalAlign=middle;resizable=0;points=[];autosize=1;rotation=90;" vertex="1" parent="eP0P-MiQ1UnPu2ceCvQb-53">
          <mxGeometry x="-27.129999999999995" y="19.25" width="74" height="19" as="geometry"/>
        </mxCell>
        <mxCell id="eP0P-MiQ1UnPu2ceCvQb-54" value="" style="group" vertex="1" connectable="0" parent="1">
          <mxGeometry x="860.13" y="839.75" width="74.13" height="51.50999999999999" as="geometry"/>
        </mxCell>
        <mxCell id="eP0P-MiQ1UnPu2ceCvQb-55" value="" style="rounded=0;whiteSpace=wrap;html=1;strokeColor=#000000;strokeWidth=1;rotation=-90;" vertex="1" parent="eP0P-MiQ1UnPu2ceCvQb-54">
          <mxGeometry y="10.889999999999986" width="74.13" height="31.37" as="geometry"/>
        </mxCell>
        <mxCell id="eP0P-MiQ1UnPu2ceCvQb-56" value="" style="ellipse;whiteSpace=wrap;html=1;aspect=fixed;strokeColor=#000000;strokeWidth=1;rotation=-90;" vertex="1" parent="eP0P-MiQ1UnPu2ceCvQb-54">
          <mxGeometry x="24.870000000000005" y="29.50999999999999" width="22" height="22" as="geometry"/>
        </mxCell>
        <mxCell id="eP0P-MiQ1UnPu2ceCvQb-57" value="" style="ellipse;whiteSpace=wrap;html=1;aspect=fixed;strokeColor=#000000;strokeWidth=1;rotation=-90;" vertex="1" parent="eP0P-MiQ1UnPu2ceCvQb-54">
          <mxGeometry x="24.870000000000005" width="22" height="22" as="geometry"/>
        </mxCell>
        <mxCell id="eP0P-MiQ1UnPu2ceCvQb-86" value="&lt;span style=&quot;font-size: 16px&quot;&gt;结果队列&lt;/span&gt;" style="text;html=1;align=center;verticalAlign=middle;resizable=0;points=[];autosize=1;rotation=90;" vertex="1" parent="eP0P-MiQ1UnPu2ceCvQb-54">
          <mxGeometry x="-31.129999999999995" y="22" width="74" height="19" as="geometry"/>
        </mxCell>
        <mxCell id="eP0P-MiQ1UnPu2ceCvQb-112" style="edgeStyle=orthogonalEdgeStyle;rounded=0;orthogonalLoop=1;jettySize=auto;html=1;exitX=0;exitY=0.5;exitDx=0;exitDy=0;entryX=1;entryY=0.5;entryDx=0;entryDy=0;strokeColor=#000000;strokeWidth=1;" edge="1" parent="1" source="eP0P-MiQ1UnPu2ceCvQb-58" target="eP0P-MiQ1UnPu2ceCvQb-40">
          <mxGeometry relative="1" as="geometry"/>
        </mxCell>
        <mxCell id="eP0P-MiQ1UnPu2ceCvQb-113" value="6.2 回调告知结果" style="text;html=1;align=center;verticalAlign=middle;resizable=0;points=[];labelBackgroundColor=#ffffff;" vertex="1" connectable="0" parent="eP0P-MiQ1UnPu2ceCvQb-112">
          <mxGeometry x="0.1171" y="-4" relative="1" as="geometry">
            <mxPoint x="-18.47" y="-7.59" as="offset"/>
          </mxGeometry>
        </mxCell>
        <mxCell id="eP0P-MiQ1UnPu2ceCvQb-58" value="&lt;font style=&quot;font-size: 16px&quot;&gt;回调服务&lt;/font&gt;" style="rounded=0;whiteSpace=wrap;html=1;strokeColor=#0000FF;" vertex="1" parent="1">
          <mxGeometry x="837.2" y="937" width="120" height="60" as="geometry"/>
        </mxCell>
        <mxCell id="eP0P-MiQ1UnPu2ceCvQb-79" style="edgeStyle=orthogonalEdgeStyle;rounded=0;orthogonalLoop=1;jettySize=auto;html=1;exitX=0;exitY=0.5;exitDx=0;exitDy=0;entryX=0.5;entryY=0;entryDx=0;entryDy=0;strokeColor=#000000;strokeWidth=1;" edge="1" parent="1" source="eP0P-MiQ1UnPu2ceCvQb-35" target="eP0P-MiQ1UnPu2ceCvQb-39">
          <mxGeometry relative="1" as="geometry"/>
        </mxCell>
        <mxCell id="eP0P-MiQ1UnPu2ceCvQb-80" value="5.1 获取任务" style="text;html=1;align=center;verticalAlign=middle;resizable=0;points=[];labelBackgroundColor=#ffffff;" vertex="1" connectable="0" parent="eP0P-MiQ1UnPu2ceCvQb-79">
          <mxGeometry x="-0.125" relative="1" as="geometry">
            <mxPoint x="33.82" y="-1.12" as="offset"/>
          </mxGeometry>
        </mxCell>
        <mxCell id="eP0P-MiQ1UnPu2ceCvQb-98" style="edgeStyle=orthogonalEdgeStyle;rounded=0;orthogonalLoop=1;jettySize=auto;html=1;exitX=0.25;exitY=1;exitDx=0;exitDy=0;entryX=1;entryY=0.5;entryDx=0;entryDy=0;strokeColor=#000000;strokeWidth=1;" edge="1" parent="1" target="eP0P-MiQ1UnPu2ceCvQb-103">
          <mxGeometry relative="1" as="geometry">
            <mxPoint x="994.4117647058824" y="563.0588235294117" as="sourcePoint"/>
          </mxGeometry>
        </mxCell>
        <mxCell id="eP0P-MiQ1UnPu2ceCvQb-99" value="4 放入队列" style="text;html=1;align=center;verticalAlign=middle;resizable=0;points=[];labelBackgroundColor=#ffffff;" vertex="1" connectable="0" parent="eP0P-MiQ1UnPu2ceCvQb-98">
          <mxGeometry x="-0.1579" y="-1" relative="1" as="geometry">
            <mxPoint x="32.65" y="4.18" as="offset"/>
          </mxGeometry>
        </mxCell>
        <mxCell id="eP0P-MiQ1UnPu2ceCvQb-100" style="edgeStyle=orthogonalEdgeStyle;rounded=0;orthogonalLoop=1;jettySize=auto;html=1;exitX=0.5;exitY=1;exitDx=0;exitDy=0;entryX=1;entryY=0.5;entryDx=0;entryDy=0;strokeColor=#000000;strokeWidth=1;" edge="1" parent="1" source="eP0P-MiQ1UnPu2ceCvQb-101" target="eP0P-MiQ1UnPu2ceCvQb-55">
          <mxGeometry relative="1" as="geometry">
            <mxPoint x="1067.3529411764707" y="826.5882352941176" as="targetPoint"/>
            <Array as="points">
              <mxPoint x="987" y="810"/>
              <mxPoint x="897" y="810"/>
            </Array>
          </mxGeometry>
        </mxCell>
        <mxCell id="eP0P-MiQ1UnPu2ceCvQb-101" value="&lt;span style=&quot;font-size: 16px&quot;&gt;任务&lt;br&gt;处理&lt;br&gt;线程&lt;br&gt;&lt;/span&gt;" style="rounded=0;whiteSpace=wrap;html=1;strokeColor=#0000FF;" vertex="1" parent="1">
          <mxGeometry x="957.5" y="711" width="57.5" height="70" as="geometry"/>
        </mxCell>
        <mxCell id="eP0P-MiQ1UnPu2ceCvQb-102" value="" style="group" vertex="1" connectable="0" parent="1">
          <mxGeometry x="950.13" y="610.75" width="74.13" height="51.50999999999999" as="geometry"/>
        </mxCell>
        <mxCell id="eP0P-MiQ1UnPu2ceCvQb-103" value="" style="rounded=0;whiteSpace=wrap;html=1;strokeColor=#000000;strokeWidth=1;rotation=-90;" vertex="1" parent="eP0P-MiQ1UnPu2ceCvQb-102">
          <mxGeometry y="10.889999999999986" width="74.13" height="31.37" as="geometry"/>
        </mxCell>
        <mxCell id="eP0P-MiQ1UnPu2ceCvQb-104" value="" style="ellipse;whiteSpace=wrap;html=1;aspect=fixed;strokeColor=#000000;strokeWidth=1;rotation=-90;" vertex="1" parent="eP0P-MiQ1UnPu2ceCvQb-102">
          <mxGeometry x="24.870000000000005" y="29.50999999999999" width="22" height="22" as="geometry"/>
        </mxCell>
        <mxCell id="eP0P-MiQ1UnPu2ceCvQb-105" value="" style="ellipse;whiteSpace=wrap;html=1;aspect=fixed;strokeColor=#000000;strokeWidth=1;rotation=-90;" vertex="1" parent="eP0P-MiQ1UnPu2ceCvQb-102">
          <mxGeometry x="24.870000000000005" width="22" height="22" as="geometry"/>
        </mxCell>
        <mxCell id="eP0P-MiQ1UnPu2ceCvQb-106" value="&lt;span style=&quot;font-size: 16px&quot;&gt;任务队列&lt;/span&gt;" style="text;html=1;align=center;verticalAlign=middle;resizable=0;points=[];autosize=1;rotation=90;" vertex="1" parent="eP0P-MiQ1UnPu2ceCvQb-102">
          <mxGeometry x="-27.129999999999995" y="19.25" width="74" height="19" as="geometry"/>
        </mxCell>
        <mxCell id="eP0P-MiQ1UnPu2ceCvQb-107" style="edgeStyle=orthogonalEdgeStyle;rounded=0;orthogonalLoop=1;jettySize=auto;html=1;exitX=0;exitY=0.5;exitDx=0;exitDy=0;entryX=0.5;entryY=0;entryDx=0;entryDy=0;strokeColor=#000000;strokeWidth=1;" edge="1" parent="1" source="eP0P-MiQ1UnPu2ceCvQb-103" target="eP0P-MiQ1UnPu2ceCvQb-101">
          <mxGeometry relative="1" as="geometry"/>
        </mxCell>
        <mxCell id="eP0P-MiQ1UnPu2ceCvQb-108" value="5.1 获取任务" style="text;html=1;align=center;verticalAlign=middle;resizable=0;points=[];labelBackgroundColor=#ffffff;" vertex="1" connectable="0" parent="eP0P-MiQ1UnPu2ceCvQb-107">
          <mxGeometry x="-0.125" relative="1" as="geometry">
            <mxPoint x="33.82" y="-1.12" as="offset"/>
          </mxGeometry>
        </mxCell>
        <mxCell id="eP0P-MiQ1UnPu2ceCvQb-109" value="5.2 将结果放入队列" style="text;html=1;align=center;verticalAlign=middle;resizable=0;points=[];labelBackgroundColor=#ffffff;" vertex="1" connectable="0" parent="1">
          <mxGeometry x="860.1347058823528" y="800.0041176470587" as="geometry">
            <mxPoint x="33.82" y="-1.12" as="offset"/>
          </mxGeometry>
        </mxCell>
        <mxCell id="eP0P-MiQ1UnPu2ceCvQb-110" style="edgeStyle=orthogonalEdgeStyle;rounded=0;orthogonalLoop=1;jettySize=auto;html=1;exitX=0;exitY=0.5;exitDx=0;exitDy=0;entryX=0.5;entryY=0;entryDx=0;entryDy=0;strokeColor=#000000;strokeWidth=1;" edge="1" parent="1" source="eP0P-MiQ1UnPu2ceCvQb-55" target="eP0P-MiQ1UnPu2ceCvQb-58">
          <mxGeometry relative="1" as="geometry"/>
        </mxCell>
        <mxCell id="eP0P-MiQ1UnPu2ceCvQb-111" value="6.1 批量获取任务结果" style="text;html=1;align=center;verticalAlign=middle;resizable=0;points=[];labelBackgroundColor=#ffffff;" vertex="1" connectable="0" parent="eP0P-MiQ1UnPu2ceCvQb-110">
          <mxGeometry x="-0.2308" y="-1" relative="1" as="geometry">
            <mxPoint x="63.65" y="1.18" as="offset"/>
          </mxGeometry>
        </mxCell>
        <mxCell id="eP0P-MiQ1UnPu2ceCvQb-122" value="&lt;font style=&quot;font-size: 20px&quot;&gt;调度中心&lt;/font&gt;" style="text;html=1;align=center;verticalAlign=middle;resizable=0;points=[];autosize=1;" vertex="1" parent="1">
          <mxGeometry x="276" y="1070" width="100" height="20" as="geometry"/>
        </mxCell>
        <mxCell id="eP0P-MiQ1UnPu2ceCvQb-123" value="&lt;font style=&quot;font-size: 20px&quot;&gt;服务实例&lt;/font&gt;" style="text;html=1;align=center;verticalAlign=middle;resizable=0;points=[];autosize=1;" vertex="1" parent="1">
          <mxGeometry x="847.5" y="1060" width="100" height="20" as="geometry"/>
        </mxCell>
      </root>
    </mxGraphModel>
  </diagram>
</mxfile>
